<svg width="50" height="50" viewBox="0 0 50 50" fill="none" xmlns="http://www.w3.org/2000/svg">
<circle cx="25" cy="25" r="24.5" stroke="#767676"/>
<path d="M17.6772 22.7687C17.6772 20.6489 18.4723 18.616 19.8877 17.1171C21.3031 15.6182 23.2227 14.7761 25.2244 14.7761C27.226 14.7761 29.1457 15.6182 30.5611 17.1171C31.9765 18.616 32.7716 20.6489 32.7716 22.7687C32.7716 26.0474 30.2944 30.3208 25.2244 35.4396C20.1543 30.3208 17.6772 26.0474 17.6772 22.7687ZM25.2244 37.8657C31.3745 31.9459 34.4488 26.9124 34.4488 22.7687C34.4488 20.1779 33.4769 17.6932 31.747 15.8612C30.0171 14.0292 27.6708 13 25.2244 13C22.7779 13 20.4317 14.0292 18.7018 15.8612C16.9719 17.6932 16 20.1779 16 22.7687C16 26.9124 19.0742 31.9459 25.2244 37.8657Z" fill="#767676"/>
<path d="M25.2244 25.1345C24.5291 25.1345 23.8622 24.8515 23.3706 24.3479C22.8789 23.8443 22.6027 23.1612 22.6027 22.449C22.6027 21.7367 22.8789 21.0537 23.3706 20.55C23.8622 20.0464 24.5291 19.7635 25.2244 19.7635C25.9197 19.7635 26.5865 20.0464 27.0782 20.55C27.5698 21.0537 27.8461 21.7367 27.8461 22.449C27.8461 23.1612 27.5698 23.8443 27.0782 24.3479C26.5865 24.8515 25.9197 25.1345 25.2244 25.1345ZM25.2244 26.9248C26.3832 26.9248 27.4946 26.4533 28.3141 25.6139C29.1335 24.7745 29.5938 23.636 29.5938 22.449C29.5938 21.2619 29.1335 20.1235 28.3141 19.2841C27.4946 18.4447 26.3832 17.9731 25.2244 17.9731C24.0655 17.9731 22.9542 18.4447 22.1347 19.2841C21.3153 20.1235 20.8549 21.2619 20.8549 22.449C20.8549 23.636 21.3153 24.7745 22.1347 25.6139C22.9542 26.4533 24.0655 26.9248 25.2244 26.9248Z" fill="#767676"/>
</svg>
